<svg xmlns="http://www.w3.org/2000/svg" xmlns:xlink="http://www.w3.org/1999/xlink" width="500" zoomAndPan="magnify" viewBox="0 0 375 187.499995" height="250" preserveAspectRatio="xMidYMid meet" version="1.2"><defs><clipPath id="3970e90a96"><path d="M 288 44.683594 L 293 44.683594 L 293 54 L 288 54 Z M 288 44.683594 "/></clipPath><clipPath id="894e766a05"><path d="M 273.328125 59 L 283 59 L 283 64 L 273.328125 64 Z M 273.328125 59 "/></clipPath><clipPath id="84d5428756"><path d="M 273.34375 58 L 318.871094 58 L 318.871094 119.734375 L 273.34375 119.734375 Z M 273.34375 58 "/></clipPath></defs><g id="9179fb94f5"><g clip-rule="nonzero" clip-path="url(#3970e90a96)"><path style=" stroke:none;fill-rule:nonzero;fill:#ff3131;fill-opacity:1;" d="M 288.792969 46.320312 L 288.792969 51.957031 C 288.792969 52.863281 289.527344 53.597656 290.433594 53.597656 C 291.339844 53.597656 292.074219 52.863281 292.074219 51.957031 L 292.074219 46.320312 C 292.074219 45.414062 291.339844 44.683594 290.433594 44.683594 C 289.527344 44.683594 288.792969 45.414062 288.792969 46.320312 "/></g><path style=" stroke:none;fill-rule:nonzero;fill:#ff3131;fill-opacity:1;" d="M 278.589844 51.9375 L 282.574219 55.921875 C 283.214844 56.5625 284.253906 56.5625 284.894531 55.921875 C 285.535156 55.28125 285.535156 54.242188 284.894531 53.601562 L 280.90625 49.617188 C 280.265625 48.976562 279.230469 48.976562 278.589844 49.617188 C 277.949219 50.257812 277.949219 51.296875 278.589844 51.9375 "/><g clip-rule="nonzero" clip-path="url(#894e766a05)"><path style=" stroke:none;fill-rule:nonzero;fill:#ff3131;fill-opacity:1;" d="M 274.980469 63.121094 L 280.617188 63.121094 C 281.523438 63.121094 282.257812 62.386719 282.257812 61.484375 C 282.257812 60.578125 281.523438 59.84375 280.617188 59.84375 L 274.980469 59.84375 C 274.078125 59.84375 273.34375 60.578125 273.34375 61.484375 C 273.34375 62.386719 274.078125 63.121094 274.980469 63.121094 "/></g><path style=" stroke:none;fill-rule:nonzero;fill:#ff3131;fill-opacity:1;" d="M 305.957031 59.769531 L 300.320312 59.769531 C 299.414062 59.769531 298.679688 60.503906 298.679688 61.410156 C 298.679688 62.316406 299.414062 63.050781 300.320312 63.050781 L 305.957031 63.050781 C 306.863281 63.050781 307.59375 62.316406 307.59375 61.410156 C 307.59375 60.503906 306.863281 59.769531 305.957031 59.769531 "/><path style=" stroke:none;fill-rule:nonzero;fill:#ff3131;fill-opacity:1;" d="M 299.980469 49.566406 L 295.992188 53.554688 C 295.351562 54.191406 295.351562 55.230469 295.992188 55.871094 C 296.632812 56.511719 297.671875 56.511719 298.3125 55.871094 L 302.296875 51.886719 C 302.9375 51.246094 302.9375 50.207031 302.296875 49.566406 C 301.65625 48.925781 300.621094 48.925781 299.980469 49.566406 "/><g clip-rule="nonzero" clip-path="url(#84d5428756)"><path style=" stroke:none;fill-rule:nonzero;fill:#ff3131;fill-opacity:1;" d="M 287.753906 86.957031 C 287.753906 86.921875 287.753906 86.886719 287.75 86.851562 L 288.027344 63.386719 C 288.042969 62.101562 289.097656 61.058594 290.382812 61.058594 L 290.410156 61.058594 C 291.039062 61.066406 291.628906 61.316406 292.070312 61.769531 C 292.507812 62.21875 292.746094 62.8125 292.738281 63.441406 L 292.5625 78.378906 L 292.5625 82.84375 C 292.5625 83.671875 293.238281 84.347656 294.066406 84.347656 C 294.898438 84.347656 295.570312 83.671875 295.570312 82.84375 L 295.570312 78.742188 C 295.917969 77.703125 296.90625 76.984375 298.003906 76.984375 L 298.035156 76.984375 C 298.71875 76.992188 299.359375 77.269531 299.839844 77.757812 C 300.316406 78.246094 300.574219 78.894531 300.566406 79.578125 L 300.5625 79.980469 C 300.5625 80.019531 300.5625 80.0625 300.566406 80.109375 L 300.566406 84.613281 C 300.566406 85.433594 301.234375 86.097656 302.050781 86.097656 C 302.867188 86.097656 303.535156 85.433594 303.535156 84.613281 L 303.535156 80.496094 C 303.964844 79.628906 304.84375 79.082031 305.824219 79.09375 C 306.5 79.101562 307.128906 79.371094 307.601562 79.851562 C 308.070312 80.332031 308.324219 80.96875 308.316406 81.644531 L 308.292969 83.558594 L 308.292969 86.414062 C 308.292969 87.253906 308.976562 87.941406 309.820312 87.941406 C 310.660156 87.941406 311.34375 87.253906 311.34375 86.414062 L 311.34375 83.589844 C 311.351562 82.992188 311.589844 82.429688 312.015625 82.011719 C 312.445312 81.59375 313.011719 81.367188 313.609375 81.375 C 314.207031 81.382812 314.765625 81.621094 315.183594 82.050781 C 315.601562 82.480469 315.828125 83.042969 315.824219 83.640625 L 315.78125 87.011719 L 315.710938 100.71875 C 315.660156 104.992188 313.953125 109.007812 310.902344 112.019531 C 307.855469 115.027344 303.828125 116.6875 299.558594 116.6875 C 299.492188 116.6875 299.429688 116.6875 299.363281 116.683594 C 296.046875 116.644531 292.863281 115.605469 290.164062 113.679688 C 287.464844 111.75 285.449219 109.078125 284.335938 105.953125 L 276.5 83.972656 C 276.40625 83.710938 276.445312 83.449219 276.613281 83.230469 C 276.765625 83.027344 276.988281 82.917969 277.238281 82.917969 C 277.253906 82.917969 277.273438 82.917969 277.292969 82.917969 C 279.492188 83.0625 281.402344 84.40625 282.28125 86.429688 L 284.863281 92.363281 C 285.148438 93.027344 285.871094 93.398438 286.574219 93.25 C 287.28125 93.097656 287.789062 92.46875 287.785156 91.746094 Z M 317.367188 79.921875 C 316.378906 78.910156 315.058594 78.34375 313.644531 78.328125 C 312.632812 78.316406 311.636719 78.597656 310.785156 79.128906 C 310.527344 78.613281 310.191406 78.144531 309.78125 77.722656 C 308.742188 76.65625 307.347656 76.0625 305.863281 76.042969 C 304.828125 76.03125 303.804688 76.308594 302.921875 76.839844 C 302.679688 76.402344 302.378906 75.996094 302.019531 75.628906 C 300.972656 74.554688 299.570312 73.957031 298.070312 73.9375 C 297.238281 73.925781 296.414062 74.109375 295.65625 74.457031 L 295.785156 63.476562 C 295.820312 60.5 293.425781 58.046875 290.445312 58.011719 C 290.425781 58.011719 290.40625 58.011719 290.386719 58.011719 C 287.433594 58.011719 285.015625 60.394531 284.980469 63.351562 L 284.730469 84.5 C 283.277344 81.828125 280.570312 80.078125 277.492188 79.878906 C 276.199219 79.792969 274.960938 80.359375 274.179688 81.394531 C 273.398438 82.429688 273.191406 83.773438 273.628906 84.996094 L 281.464844 106.976562 C 282.789062 110.691406 285.183594 113.867188 288.394531 116.160156 C 291.601562 118.449219 295.382812 119.6875 299.328125 119.734375 C 299.40625 119.734375 299.484375 119.734375 299.5625 119.734375 C 304.601562 119.734375 309.367188 117.792969 312.972656 114.269531 C 316.644531 110.683594 318.699219 105.882812 318.761719 100.746094 L 318.832031 87.042969 L 318.871094 83.679688 C 318.886719 82.265625 318.351562 80.929688 317.367188 79.921875 "/></g><g style="fill:#004aad;fill-opacity:1;"><g transform="translate(59.420286, 110.455587)"><path style="stroke:none" d="M 15.0625 0.484375 C 6.53125 0.484375 2.265625 -4.203125 2.265625 -13.578125 C 2.265625 -18.234375 3.425781 -21.789062 5.75 -24.25 C 8.070312 -26.71875 11.398438 -27.953125 15.734375 -27.953125 C 18.910156 -27.953125 21.757812 -27.332031 24.28125 -26.09375 L 22.0625 -20.296875 C 20.882812 -20.773438 19.785156 -21.164062 18.765625 -21.46875 C 17.753906 -21.769531 16.742188 -21.921875 15.734375 -21.921875 C 11.835938 -21.921875 9.890625 -19.15625 9.890625 -13.625 C 9.890625 -8.257812 11.835938 -5.578125 15.734375 -5.578125 C 17.171875 -5.578125 18.503906 -5.765625 19.734375 -6.140625 C 20.960938 -6.523438 22.191406 -7.128906 23.421875 -7.953125 L 23.421875 -1.546875 C 22.203125 -0.773438 20.972656 -0.242188 19.734375 0.046875 C 18.503906 0.335938 16.945312 0.484375 15.0625 0.484375 Z M 15.0625 0.484375 "/></g></g><g style="fill:#004aad;fill-opacity:1;"><g transform="translate(85.254556, 110.455587)"><path style="stroke:none" d="M 11.40625 0 L 3.921875 0 L 3.921875 -38.1875 L 11.40625 -38.1875 Z M 11.40625 0 "/></g></g><g style="fill:#004aad;fill-opacity:1;"><g transform="translate(100.588298, 110.455587)"><path style="stroke:none" d="M 3.609375 -34.53125 C 3.609375 -36.96875 4.96875 -38.1875 7.6875 -38.1875 C 10.394531 -38.1875 11.75 -36.96875 11.75 -34.53125 C 11.75 -33.375 11.410156 -32.46875 10.734375 -31.8125 C 10.054688 -31.164062 9.039062 -30.84375 7.6875 -30.84375 C 4.96875 -30.84375 3.609375 -32.070312 3.609375 -34.53125 Z M 11.40625 0 L 3.921875 0 L 3.921875 -27.4375 L 11.40625 -27.4375 Z M 11.40625 0 "/></g></g><g style="fill:#004aad;fill-opacity:1;"><g transform="translate(115.922041, 110.455587)"><path style="stroke:none" d="M 15.0625 0.484375 C 6.53125 0.484375 2.265625 -4.203125 2.265625 -13.578125 C 2.265625 -18.234375 3.425781 -21.789062 5.75 -24.25 C 8.070312 -26.71875 11.398438 -27.953125 15.734375 -27.953125 C 18.910156 -27.953125 21.757812 -27.332031 24.28125 -26.09375 L 22.0625 -20.296875 C 20.882812 -20.773438 19.785156 -21.164062 18.765625 -21.46875 C 17.753906 -21.769531 16.742188 -21.921875 15.734375 -21.921875 C 11.835938 -21.921875 9.890625 -19.15625 9.890625 -13.625 C 9.890625 -8.257812 11.835938 -5.578125 15.734375 -5.578125 C 17.171875 -5.578125 18.503906 -5.765625 19.734375 -6.140625 C 20.960938 -6.523438 22.191406 -7.128906 23.421875 -7.953125 L 23.421875 -1.546875 C 22.203125 -0.773438 20.972656 -0.242188 19.734375 0.046875 C 18.503906 0.335938 16.945312 0.484375 15.0625 0.484375 Z M 15.0625 0.484375 "/></g></g><g style="fill:#004aad;fill-opacity:1;"><g transform="translate(141.75631, 110.455587)"><path style="stroke:none" d="M 11.125 -14.921875 L 14.375 -19.09375 L 22.0625 -27.4375 L 30.515625 -27.4375 L 19.609375 -15.53125 L 31.171875 0 L 22.53125 0 L 14.625 -11.125 L 11.40625 -8.546875 L 11.40625 0 L 3.921875 0 L 3.921875 -38.1875 L 11.40625 -38.1875 L 11.40625 -21.15625 L 11.015625 -14.921875 Z M 11.125 -14.921875 "/></g></g><g style="fill:#004aad;fill-opacity:1;"><g transform="translate(172.914416, 110.455587)"><path style="stroke:none" d="M 4.515625 -35.890625 L 15.6875 -35.890625 C 20.769531 -35.890625 24.460938 -35.160156 26.765625 -33.703125 C 29.066406 -32.253906 30.21875 -29.953125 30.21875 -26.796875 C 30.21875 -24.660156 29.710938 -22.90625 28.703125 -21.53125 C 27.691406 -20.15625 26.351562 -19.328125 24.6875 -19.046875 L 24.6875 -18.796875 C 26.96875 -18.296875 28.609375 -17.347656 29.609375 -15.953125 C 30.617188 -14.566406 31.125 -12.71875 31.125 -10.40625 C 31.125 -7.132812 29.941406 -4.582031 27.578125 -2.75 C 25.210938 -0.914062 22 0 17.9375 0 L 4.515625 0 Z M 12.125 -21.671875 L 16.546875 -21.671875 C 18.609375 -21.671875 20.097656 -21.988281 21.015625 -22.625 C 21.941406 -23.269531 22.40625 -24.328125 22.40625 -25.796875 C 22.40625 -27.171875 21.898438 -28.15625 20.890625 -28.75 C 19.890625 -29.351562 18.300781 -29.65625 16.125 -29.65625 L 12.125 -29.65625 Z M 12.125 -15.640625 L 12.125 -6.28125 L 17.078125 -6.28125 C 19.171875 -6.28125 20.71875 -6.679688 21.71875 -7.484375 C 22.71875 -8.285156 23.21875 -9.515625 23.21875 -11.171875 C 23.21875 -14.148438 21.09375 -15.640625 16.84375 -15.640625 Z M 12.125 -15.640625 "/></g></g><g style="fill:#004aad;fill-opacity:1;"><g transform="translate(206.67312, 110.455587)"><path style="stroke:none" d="M 15.296875 -22.625 C 13.703125 -22.625 12.453125 -22.117188 11.546875 -21.109375 C 10.648438 -20.109375 10.140625 -18.6875 10.015625 -16.84375 L 20.515625 -16.84375 C 20.484375 -18.6875 20 -20.109375 19.0625 -21.109375 C 18.132812 -22.117188 16.878906 -22.625 15.296875 -22.625 Z M 16.34375 0.484375 C 11.925781 0.484375 8.472656 -0.734375 5.984375 -3.171875 C 3.503906 -5.609375 2.265625 -9.0625 2.265625 -13.53125 C 2.265625 -18.125 3.410156 -21.675781 5.703125 -24.1875 C 8.003906 -26.695312 11.179688 -27.953125 15.234375 -27.953125 C 19.117188 -27.953125 22.140625 -26.847656 24.296875 -24.640625 C 26.453125 -22.429688 27.53125 -19.378906 27.53125 -15.484375 L 27.53125 -11.859375 L 9.84375 -11.859375 C 9.925781 -9.722656 10.554688 -8.054688 11.734375 -6.859375 C 12.910156 -5.671875 14.5625 -5.078125 16.6875 -5.078125 C 18.34375 -5.078125 19.90625 -5.25 21.375 -5.59375 C 22.851562 -5.9375 24.390625 -6.484375 25.984375 -7.234375 L 25.984375 -1.453125 C 24.679688 -0.796875 23.285156 -0.3125 21.796875 0 C 20.304688 0.320312 18.488281 0.484375 16.34375 0.484375 Z M 16.34375 0.484375 "/></g></g><g style="fill:#004aad;fill-opacity:1;"><g transform="translate(236.359189, 110.455587)"><path style="stroke:none" d="M 23.078125 -8.15625 C 23.078125 -5.332031 22.097656 -3.1875 20.140625 -1.71875 C 18.179688 -0.25 15.253906 0.484375 11.359375 0.484375 C 9.367188 0.484375 7.664062 0.347656 6.25 0.078125 C 4.84375 -0.179688 3.53125 -0.578125 2.3125 -1.109375 L 2.3125 -7.296875 C 3.695312 -6.640625 5.257812 -6.085938 7 -5.640625 C 8.75 -5.203125 10.285156 -4.984375 11.609375 -4.984375 C 14.328125 -4.984375 15.6875 -5.769531 15.6875 -7.34375 C 15.6875 -7.925781 15.503906 -8.398438 15.140625 -8.765625 C 14.785156 -9.140625 14.164062 -9.554688 13.28125 -10.015625 C 12.394531 -10.484375 11.21875 -11.03125 9.75 -11.65625 C 7.632812 -12.539062 6.082031 -13.359375 5.09375 -14.109375 C 4.101562 -14.859375 3.382812 -15.71875 2.9375 -16.6875 C 2.488281 -17.664062 2.265625 -18.867188 2.265625 -20.296875 C 2.265625 -22.734375 3.207031 -24.617188 5.09375 -25.953125 C 6.976562 -27.285156 9.65625 -27.953125 13.125 -27.953125 C 16.4375 -27.953125 19.65625 -27.234375 22.78125 -25.796875 L 20.515625 -20.390625 C 19.140625 -20.984375 17.851562 -21.46875 16.65625 -21.84375 C 15.46875 -22.21875 14.253906 -22.40625 13.015625 -22.40625 C 10.796875 -22.40625 9.6875 -21.804688 9.6875 -20.609375 C 9.6875 -19.941406 10.039062 -19.363281 10.75 -18.875 C 11.46875 -18.382812 13.03125 -17.65625 15.4375 -16.6875 C 17.582031 -15.820312 19.148438 -15.007812 20.140625 -14.25 C 21.140625 -13.5 21.878906 -12.632812 22.359375 -11.65625 C 22.835938 -10.675781 23.078125 -9.507812 23.078125 -8.15625 Z M 23.078125 -8.15625 "/></g></g><g style="fill:#004aad;fill-opacity:1;"><g transform="translate(261.334742, 110.455587)"><path style="stroke:none" d="M 15.484375 -5.46875 C 16.796875 -5.46875 18.367188 -5.753906 20.203125 -6.328125 L 20.203125 -0.765625 C 18.335938 0.0664062 16.046875 0.484375 13.328125 0.484375 C 10.328125 0.484375 8.144531 -0.269531 6.78125 -1.78125 C 5.414062 -3.289062 4.734375 -5.5625 4.734375 -8.59375 L 4.734375 -21.8125 L 1.15625 -21.8125 L 1.15625 -24.984375 L 5.28125 -27.484375 L 7.4375 -33.28125 L 12.21875 -33.28125 L 12.21875 -27.4375 L 19.90625 -27.4375 L 19.90625 -21.8125 L 12.21875 -21.8125 L 12.21875 -8.59375 C 12.21875 -7.53125 12.515625 -6.742188 13.109375 -6.234375 C 13.710938 -5.722656 14.503906 -5.46875 15.484375 -5.46875 Z M 15.484375 -5.46875 "/></g></g></g></svg>